<svg xmlns="http://www.w3.org/2000/svg" viewBox="0 0 120 120">
  <ellipse cx="64" cy="64" rx="13" ry="11" fill="#0a0805"/>
  <path fill="currentColor" d="M21 76c2-18 11-31 25-38 11-6 24-7 36-2 8 3 14 9 17 17 3 7 3 15 0 22-3 7-9 12-17 15-6 2-11 5-15 10l-5 6H45l3-9c2-5 0-9-4-12-7-4-13-9-18-17-3-5-5-9-5-14zm24-21c0 3 2 6 5 8 4 2 8 3 13 3 8 1 14 0 20-4 4-3 8-7 9-12-7 2-13 5-18 8-5 2-11 3-17 2-4 0-8-2-12-5z"/>
  <path fill="currentColor" d="M38 55c3-1 7-1 11 0 5 1 9 3 14 4 6 1 11 0 16-2 5-2 9-5 14-9-1 6-4 11-8 15-6 5-14 8-22 8-11 0-19-5-25-16z"/>
</svg>
